<?xml version="1.0" encoding="utf-8"?>
<!-- Generator: Adobe Illustrator 22.1.0, SVG Export Plug-In . SVG Version: 6.00 Build 0)  -->
<svg version="1.1" id="Слой_2" xmlns="http://www.w3.org/2000/svg" xmlns:xlink="http://www.w3.org/1999/xlink" x="0px" y="0px"
	 viewBox="0 0 1451.3 1451.3" style="enable-background:new 0 0 1451.3 1451.3;" xml:space="preserve">
<style type="text/css">
	.st0{fill:none;stroke:#000000;stroke-width:20;stroke-miterlimit:10;}
	.st1{fill:none;stroke:#000000;stroke-width:10;stroke-miterlimit:10;}
	.st2{fill:none;}
</style>
<path class="st0" d="M278.1,1218.2c-2.8-0.9-5.6-1.6-8.4-2c-22.8-3.2-56.1-7.4-76.3-15.7l-36.9-15.3c-16.7-6.9-27.5-23.2-27.3-41.3
	l9.9-995c0.2-22.9,15.1-43.1,36.9-50.1l156.5-50.1c12.2-3.9,24.7-6.8,37.3-8.8L500,19.7c8.9-1.4,18-1,26.7,1.3l701,179.1
	c27.6,7,46.9,31.8,47,60.3l3.9,1040.4c0.1,21.2-13.9,40-34.3,45.9l-292.2,84.8c-10.4,3-21.3,4.1-32.1,3.3l-21.3-1.7
	c-44.3-3.5-86.6-20.5-121-48.6l-4.1-3.4L278.1,1218.2z"/>
<path class="st0" d="M774,1377.5l-1.3-112.5c0.5-5.1-2.6-9.8-7.5-11.4l-542.3-181c-3.4-1.1-6.8,1.4-6.7,5l-0.4,130.4"/>
<path class="st0" d="M816.1,707.8c0,36.8-16.4,66.6-40.1,66.6c-23.7,0-45.7-29.8-45.7-66.6s12.1-66.6,35.8-66.6
	S816.1,671,816.1,707.8z"/>
<line class="st0" x1="754.5" y1="550.3" x2="753.9" y2="644.3"/>
<line class="st0" x1="792.6" y1="567.2" x2="793.1" y2="653.3"/>
<path class="st1" d="M332.5,48.8L1057.4,248c24.8,7.5,41.7,30.3,41.7,56.2l0.6,1084.3"/>
<path class="st0" d="M1278.6,941.4c268.6-222.7,88.9-367.8-179.5-494.7"/>
<path class="st0" d="M923.7,1434.5l-3.5-1032.2c-0.5-28.9-19.7-54.2-47.4-62.3L144.5,125.9"/>
<g>
	<g>
		<path d="M265.2,632.7c3.5,5.1,8.6,9.9,14.1,11.5c8.3,2.3,13.2-4.5,13.2-16.5c0-11.1-3.4-18.2-11.9-26.3c-10.1-9-16.1-20-16.1-36.1
			c0-17.8,7.8-30,19.9-28.2c6.5,1,11.3,4.5,14.2,7.9l-2.3,12.2c-2.1-2.5-6.4-6.7-12.1-7.6c-8.5-1.4-11.7,7.5-11.7,15.4
			c0,10.8,3.7,16.9,12.3,24.9c10.8,10.1,16.4,21.1,16.4,38.7c0,18.5-7.4,32.5-22.4,28c-5.9-1.8-12.3-7.1-15.5-12.1L265.2,632.7z"/>
		<path d="M359.6,631.8c0,34.1-13.7,44.9-26.2,41.2c-13.6-4.1-23.8-24.4-23.8-51.9c0-29.1,10.7-44.2,24.6-41.6
			C349.2,582.3,359.6,603.5,359.6,631.8z M318.6,622.8c0,19.3,6.2,35.6,15.2,38.1c9,2.5,15.8-10.4,15.8-31c0-15.5-4.5-36-15.6-38.2
			C323.2,589.5,318.6,606,318.6,622.8z"/>
		<path d="M372.2,614.1c0-9.7-0.1-17.6-0.5-25.4l9.1,1.7l0.6,15.8l0.2,0c2.8-8.4,9.5-16,19.2-14.2c8.3,1.6,21.5,12.2,21.5,46.2v59.1
			l-11.2-3.3v-56.4c0-15.8-3.6-29.6-13.9-31.7c-7-1.4-12.4,5.5-14.2,14.7c-0.5,2-0.7,4.9-0.7,7.9v57l-10.3-3V614.1z"/>
		<path d="M503.6,666.6c0,39.8-18.5,51.6-35.3,46.6c-18.2-5.4-31.8-29.4-31.8-61.2c0-33.6,14.3-50.7,32.9-47.2
			C489.5,608.7,503.6,633.8,503.6,666.6z M448.4,654.3c0,22.3,8.4,41.5,20.4,44.9c12.1,3.4,21.3-11.3,21.3-35.2c0-18-6-42-21-45
			C454.6,616.1,448.4,635,448.4,654.3z"/>
		<path d="M569.9,741v-98.7l-33.9-6.9v95.6l-13.9-4.1v-94.4l-10.6-2.2v-15l10.6,2v-3.2c0-15.4,2.5-28.3,8.6-36
			c4.5-6,11-8.9,19.9-7.7c4.7,0.7,9.1,3.4,11.6,5.6l-3.1,15c-2.2-2-5.4-3.9-8.7-4.4c-11.4-1.8-14.4,11.3-14.4,28.7v4.6l33.9,6.4
			v-5.4c0-16.1,2.8-30.3,9.9-38.5c5.8-6.8,13.7-8.9,20.9-7.9c5.9,0.8,10.7,3.2,13.9,5.4l-2.1,16.4c-2.6-1.9-5.7-3.6-10.5-4.3
			c-13.4-2.1-16.9,13.2-16.9,31v6.2l21.1,4v16.4l-21-4.3v100.1L569.9,741z"/>
	</g>
</g>
<polygon class="st2" points="365.4,625.5 373.9,625.5 373.9,625.5 365.4,625.5 "/>
<ellipse cx="295.9" cy="1164" rx="13.8" ry="27"/>
<ellipse cx="365.4" cy="1183" rx="13.8" ry="27"/>
<ellipse cx="436.5" cy="1210" rx="13.8" ry="27"/>
<ellipse cx="511.5" cy="1237" rx="13.8" ry="27"/>
<ellipse cx="587" cy="1264" rx="13.8" ry="27"/>
<ellipse cx="665" cy="1291" rx="13.8" ry="27"/>
</svg>
