<?xml version="1.0" encoding="utf-8"?>
<!-- Generator: Adobe Illustrator 22.1.0, SVG Export Plug-In . SVG Version: 6.00 Build 0)  -->
<svg version="1.1" id="Слой_2" xmlns="http://www.w3.org/2000/svg" xmlns:xlink="http://www.w3.org/1999/xlink" x="0px" y="0px"
	 viewBox="0 0 1451.3 1451.3" style="enable-background:new 0 0 1451.3 1451.3;" xml:space="preserve">
<style type="text/css">
	.st0{fill:none;stroke:#000000;stroke-width:20;stroke-miterlimit:10;}
	.st1{fill:none;stroke:#000000;stroke-width:10;stroke-miterlimit:10;}
	.st2{stroke:#000000;stroke-width:30;stroke-miterlimit:10;}
</style>
<path class="st0" d="M438.5,1343c-7.1,0.3-14.2-0.6-21-2.7l-262.4-80.7c-24.2-8.4-40.5-31.2-40.7-56.8l-9.9-1053.2
	c-0.2-24.7,18-45.6,42.4-48.8l253-33h8.6l860.1,5.6c22.5,0.5,41.6,17.2,44.4,39.5c43.4,351.6,24.8,951.5,3.6,1144.1
	c-3,27.5-25.6,48.7-53.3,50L438.5,1343z"/>
<line class="st1" x1="262.7" y1="108.5" x2="273.5" y2="1296"/>
<path class="st1" d="M262.7,108.5c0-14,8.3-25.3,18.5-25.3"/>
<ellipse class="st1" cx="183.2" cy="690.1" rx="50" ry="165.8"/>
<path class="st1" d="M1183,1074.6l-623.2,24.3c-19.3,0-35-15.8-35-35V377.8c0-19.3,15.8-35,35-35l618.9-7.1c19.3,0,35,15.8,35,35
	l4.3,668.9C1218,1058.8,1202.3,1074.6,1183,1074.6z"/>
<path class="st0" d="M376.2,117.1c26.3,596.2,32.2,643.6,13,1214.4"/>
<path class="st0" d="M376.2,117.1c0-27.3,14.4-49.3,32.3-49.3"/>
<ellipse class="st0" cx="860.7" cy="723" rx="264.4" ry="291.6"/>
<path class="st1" d="M914.3,706.9c0,18.7-12.3,33.9-31.1,33.9c-18.7,0-29.7-15.2-29.7-33.9c0-18.7,10.9-33.9,29.7-33.9
	C902,673,914.3,688.2,914.3,706.9z"/>
<path class="st1" d="M657.4,712.2c0,18.7-12.3,33.9-31.1,33.9c-18.7,0-29.7-15.2-29.7-33.9c0-18.7,10.9-33.9,29.7-33.9
	C645,678.3,657.4,693.5,657.4,712.2z"/>
<polyline class="st1" points="779.7,445.3 779.7,505.2 721.9,505.2 721.9,474.8 "/>
<path class="st0" d="M750.8,464.3c21.9,21.5,86.9,56.2,74.7-7.6"/>
<path class="st0" d="M770.9,464.3c21.9,21.5,86.9,56.2,74.7-7.6"/>
<polyline class="st1" points="721.9,971.2 721.9,903.9 779.7,903.9 779.7,1000.6 "/>
<path class="st0" d="M721.9,971.2c33.4-47.8,136.5-85.9,125.2-18.9"/>
<path class="st0" d="M734.6,979.8c33.4-47.8,136.5-85.9,125.2-18.9"/>
<line class="st1" x1="392.3" y1="1219.1" x2="1323" y2="1184.4"/>
<rect x="770.9" y="1205" class="st1" width="199.5" height="114.7"/>
<line class="st0" x1="770.9" y1="1251.2" x2="970.4" y2="1246.9"/>
<path class="st2" d="M784.9,1331.5c0,14-73.1,50.5-145.9,50.5s-131.9-25.3-131.9-39.3"/>
<ellipse class="st2" cx="637.2" cy="1377.9" rx="103.6" ry="21.2"/>
<ellipse class="st2" cx="632.5" cy="1412" rx="69.7" ry="12.9"/>
<rect x="1001.8" y="688" class="st1" width="120.3" height="50"/>
</svg>
