<?xml version="1.0" encoding="utf-8"?>
<!-- Generator: Adobe Illustrator 22.1.0, SVG Export Plug-In . SVG Version: 6.00 Build 0)  -->
<svg version="1.1" id="Слой_2" xmlns="http://www.w3.org/2000/svg" xmlns:xlink="http://www.w3.org/1999/xlink" x="0px" y="0px"
	 viewBox="0 0 1451.3 1451.3" style="enable-background:new 0 0 1451.3 1451.3;" xml:space="preserve">
<style type="text/css">
	.st0{fill:none;stroke:#000000;stroke-width:10;stroke-linecap:round;stroke-linejoin:round;stroke-miterlimit:10;}
	.st1{fill:none;stroke:#000000;stroke-width:5;stroke-linecap:round;stroke-linejoin:round;stroke-miterlimit:10;}
	.st2{fill:none;stroke:#000000;stroke-width:12;stroke-linecap:round;stroke-linejoin:round;stroke-miterlimit:10;}
</style>
<path class="st0" d="M122,447.2c0.1,2.5-2.1,4.6-4.6,4.4l-61.9-3.6c-6.1-0.3-11,4.8-10.4,10.9l8.3,85.4l-39.1,63
	c-3.5,5.6-4.9,12.2-4.2,18.7L29,796.7c1,8.9,6,16.9,13.5,21.7l120.1,76.1c2.6,1.6,5.3,3,8.1,4.2l1008,416.3
	c8.9,3.7,19.1-0.1,23.5-8.7l231.1-450.1c3.5-6.9,5.5-14.5,5.7-22.2l1.8-59.8c0.3-10.7-3.1-21.2-9.8-29.6l-2.6-3.2
	c-4.8-6.1-11-11.1-17.9-14.6l-83.6-41.5c-5.8-2.9-11-6.7-15.6-11.2l-23.8-23.8c-3.3-3.3-7.1-6.2-11.1-8.6l-90-53
	c-6.2-3.9-11.7-8.8-16.2-14.6c-14-17.9-24.5-45.5-46.8-78.1c-5.3-7.8-12.9-13.8-21.7-17.2L458.3,234.5c-8.8-3.3-18.1-5.3-27.5-5.8
	L295,221.5c-8.8-0.5-17.2,3.7-22.1,11.1l-19.5,29.2c-7.7,11.5-18,21-30,27.8l-103.2,57.9c-3.9,2.2-6.1,6.4-5.7,10.8L122,447.2z"/>
<path class="st0" d="M115.6,352.3c15.8-0.5,39.1,1,52.8,6.6c9.8,4,15.1,14.7,12.6,25c-7.4,29.5-40.7,59.9-62.8,67.7"/>
<line class="st0" x1="148.6" y1="665.4" x2="14.3" y2="607.4"/>
<line class="st0" x1="844.6" y1="942.6" x2="148.6" y2="665.4"/>
<line class="st0" x1="1113.8" y1="485.5" x2="844.6" y2="942.6"/>
<line class="st0" x1="860.8" y1="966.8" x2="1131" y2="507.3"/>
<line class="st0" x1="844.6" y1="942.6" x2="860.8" y2="966.8"/>
<path class="st0" d="M1195.8,1313.3l1.7-69.1c0.2-8.4-2.4-16.6-7.4-23.4l-10.3-13.8c-3.5-4.7-8.3-8.4-13.8-10.5
	c-92.9-35.5-242.5-120.5-305.2-229.7"/>
<path class="st0" d="M1420.6,733.3l-16,20.3c-3.7,4.6-10.6,4.9-14.7,0.7l-68-71.8"/>
<path class="st0" d="M1165.9,1196.5l3.5-4.3c10.7-13.3,10.7-32.2-0.1-45.4l-82.5-101.3c-9.3-11.4-20.7-21-33.6-28.1l-167.6-92.9"/>
<path class="st1" d="M1239.7,1226.7l-4.9-45.8c-1.6-14.6-7.7-28.4-17.4-39.4L1087,994.9l-102.9-50.6c-3.1-1.5-5.2-4.6-5.3-8.1
	c-3.9-80.8,10.3-269.7,194-324.2c1.7-0.5,3.5-0.2,5,0.7l86.6,56.2c4.2,2.7,7.9,6,11.2,9.7l128.9,145.7
	c10.4,11.8,16.2,26.9,16.2,42.6v14.1"/>
<path class="st1" d="M898.7,850.7l-141.5-56.1c-4.3-1.7-9.1-1.4-13.1,0.8l-50.8,27.5c-6.4,3.4-13.9,3.8-20.6,1L323.7,677.9
	c-6.3-2.6-10.3-9-9.8-15.9l2.8-43.3c0.3-4.1-2.3-8-6.2-9.3l-96.9-33.7c-0.9-0.3-1.9-0.6-2.9-0.8L53.4,544.3"/>
<path class="st1" d="M233.8,284.3l157.4,28.6l97.9,30c4.8,1.5,10.1,1.1,14.6-1.1l45.1-21.7c4.1-2,8.9-2.2,13.2-0.6l339.2,129.6
	c4.1,1.6,7.3,5,8.5,9.3l12.8,44c1.8,6,6.2,10.9,12.1,13.2l131.4,50.9"/>
<ellipse transform="matrix(0.8489 -0.5286 0.5286 0.8489 -305.3429 817.1727)" class="st1" cx="1276.5" cy="942.6" rx="30.9" ry="63.2"/>
<ellipse transform="matrix(0.4158 -0.9095 0.9095 0.4158 -622.2086 836.5151)" class="st1" cx="340" cy="902.6" rx="21.8" ry="30.9"/>
<ellipse class="st1" cx="336.7" cy="533.2" rx="37" ry="33.3"/>
<polyline class="st2" points="409.1,643.9 380.4,629.6 395.2,604.9 "/>
<polyline class="st2" points="435.1,659.2 449.5,633.4 424.3,620.6 422.5,622.8 409.1,643.9 "/>
<polygon class="st2" points="457.5,616.1 471.7,595.2 445.2,585.6 432.9,604.9 "/>
<polygon class="st2" points="503.2,549.8 518.7,529 492.2,519.3 478.5,538.6 "/>
<polyline class="st2" points="484.9,582.5 458.3,571.8 469,555.1 495.5,564.7 "/>
<polyline class="st2" points="513.5,482.4 498.6,502.2 532,514.7 "/>
<line class="st2" x1="526.1" y1="497.8" x2="516.7" y2="509.1"/>
<polyline class="st2" points="537.7,449 522.8,468.7 556.1,481.3 "/>
<line class="st2" x1="550.2" y1="464.4" x2="540.9" y2="475.6"/>
</svg>
