<?xml version="1.0" encoding="utf-8"?>
<!-- Generator: Adobe Illustrator 23.0.5, SVG Export Plug-In . SVG Version: 6.00 Build 0)  -->
<svg version="1.1" id="Слой_2" xmlns="http://www.w3.org/2000/svg" xmlns:xlink="http://www.w3.org/1999/xlink" x="0px" y="0px"
	 viewBox="0 0 512 512" style="enable-background:new 0 0 512 512;" xml:space="preserve">
<style type="text/css">
	.st0{fill:none;stroke:#000000;stroke-width:10;stroke-miterlimit:10;}
	.st1{fill:none;stroke:#000000;stroke-width:5;stroke-miterlimit:10;}
	.st2{fill:none;stroke:#000000;stroke-width:3;stroke-miterlimit:10;}
</style>
<path class="st0" d="M501.2,161.8l-14.5,8.8c-2,1.2-4.4,1.3-6.4,0.2l-17.9-9.3c-2.4-1.2-5.2-1.1-7.5,0.3L225,304.3
	c-1.8,1.1-2.1,3.6-0.5,5.1l16,15.3c2,1.9,1.6,5.2-0.8,6.6L217,344.8c-2.7,1.6-6.1,1.3-8.5-0.7L22.6,191.3c-1-0.8-0.8-2.4,0.4-3
	L302.9,54.7c2.9-1.4,6.3-1.3,9.1,0.2l189,100.7C503.4,156.9,503.5,160.3,501.2,161.8z"/>
<path class="st0" d="M185.5,443.5l24.9-18.4c1.3-1,2.1-2.5,2.1-4.2l-1-75.4"/>
<path class="st0" d="M185.5,443.5L6.9,279.8c-0.7-0.6-0.6-1.8,0.2-2.3l23.1-15.1c0.8-0.5,1.3-1.5,1.1-2.5l-8.8-68.4"/>
<path class="st0" d="M6.5,278.5l2.9,22.3c0.1,0.4,0.3,0.8,0.6,1.1l43.5,39.7c0.8,0.7,2,0.2,2-0.9v-3.2c0-0.8,0.9-1.2,1.5-0.6
	l68.9,65c0.4,0.4,0.6,0.9,0.5,1.4l-0.8,7.3c-0.1,0.5,0.1,1,0.5,1.4l60.4,54.4"/>
<path class="st0" d="M494.5,211.5l9.1,8.2c0.6,0.5,0.9,1.3,0.8,2.1l-1.8,19.4c-0.1,0.9-0.5,1.6-1.2,2.1l-40,28.5
	c-0.4,0.3-0.9,0-0.9-0.5v-6.2c0-0.7-0.8-1.1-1.3-0.7l-57.8,42.4c-0.6,0.4-0.9,1.1-0.9,1.8v5.6c0,0.8-0.4,1.6-1.1,2.1l-68.9,49.5
	c-0.5,0.3-1.1,0-1.1-0.6v-4.7c0-1.2-1.4-2-2.4-1.2L254,411.5c-0.9,0.6-1.4,1.7-1.3,2.8l0.7,5.9c0.1,0.8-0.3,1.6-1,2.1L187.2,467
	c-0.3,0.2-0.8,0-0.8-0.4l-1-23.1"/>
<path class="st0" d="M504.4,220.4l-13.1,9.7c-0.6,0.5-1.5-0.1-1.4-0.9l12.6-68.8"/>
<path class="st1" d="M459.5,160.5l-9.7,56.4c-0.8,4.6,1.2,9.2,5.1,11.8l12.2,8.1c1.2,0.8,1.2,2.5,0,3.3L250.7,390.9
	c-2.2,1.5-5.2,0-5.2-2.7v-52.9c0-1.7,0.9-3.3,2.3-4.2l205.7-135.5"/>
<line class="st1" x1="482.5" y1="173.5" x2="468.5" y2="238.5"/>
<path class="st1" d="M419.7,172l-166,103.5c-1.6,1-3.7,0.9-5.2-0.2L100.9,165.1c-1.3-1-1.1-3,0.4-3.7L264,82.8
	c1.6-0.8,3.4-0.7,4.9,0.2l150.7,84.7C421.3,168.6,421.3,171,419.7,172z"/>
<ellipse class="st1" cx="39.5" cy="188.5" rx="9" ry="5"/>
<ellipse class="st1" cx="215" cy="329.5" rx="11.5" ry="8"/>
<ellipse transform="matrix(7.016359e-02 -0.9975 0.9975 7.016359e-02 295.7862 630.3217)" class="st1" cx="486" cy="156.5" rx="6" ry="8.5"/>
<ellipse class="st1" cx="308" cy="62" rx="7.5" ry="3.5"/>
<ellipse class="st1" cx="34.5" cy="286.5" rx="7" ry="4"/>
<ellipse class="st1" cx="176.5" cy="416" rx="8" ry="5.5"/>
<path class="st1" d="M168.5,166.5l7.2-5.6c0.4-0.2,0.4-0.7,0.1-1l-5.9-5.1c-0.2-0.2-0.5-0.2-0.8,0l-6.3,4.5
	c-0.2,0.1-0.5,0.1-0.6-0.1l-5.3-5.3c-0.2-0.2-0.1-0.5,0.1-0.6l6.5-4.8"/>
<path class="st1" d="M186.7,152.4l-3.6-3.3c-0.3-0.3-0.8-0.4-1.1-0.2l-4.1,2.3c-0.4,0.2-0.4,0.7-0.1,1.1l3.6,3.9l0.2,0.2
	c0.4,0.4,0.9,0.5,1.3,0.2l3.8-2.8C187.2,153.5,187.2,152.8,186.7,152.4z"/>
<path class="st1" d="M211.8,140.6l-4-3.8c-0.4-0.4-0.9-0.4-1.2-0.2l-4.3,2.5c-0.4,0.2-0.4,0.8,0,1.2l4,4.4l0.2,0.2
	c0.4,0.5,1,0.6,1.4,0.3l4-3C212.4,141.8,212.3,141,211.8,140.6z"/>
<path class="st1" d="M201.5,147.5l-5.3-4.4c-0.4-0.3-1-0.4-1.4-0.1l-5.3,3c-0.5,0.3-0.5,0.9-0.2,1.3l4.3,4.3l1,1"/>
<polyline class="st1" points="218.5,129.5 212.5,133.5 219.5,140.5 "/>
<line class="st2" x1="219.5" y1="134.5" x2="216.5" y2="136.5"/>
<polyline class="st1" points="229.5,124.5 223.5,128.5 230.5,135.5 "/>
<line class="st2" x1="230.5" y1="129.5" x2="227.5" y2="131.5"/>
<path class="st1" d="M319.5,345.5l-0.5-23.3c-0.2-1.3-1.7-1.9-2.8-1.2l-63,42.3c-1,0.7-1.6,1.9-1.5,3.2l0.8,24"/>
<ellipse class="st1" cx="263" cy="369" rx="4.5" ry="6.5"/>
<ellipse class="st1" cx="277" cy="359" rx="4.5" ry="6.5"/>
<ellipse class="st1" cx="290" cy="351" rx="4.5" ry="6.5"/>
<ellipse class="st1" cx="302" cy="342" rx="4.5" ry="6.5"/>
<ellipse class="st1" cx="315" cy="334" rx="4.5" ry="6.5"/>
<line class="st1" x1="246.5" y1="340.5" x2="251.5" y2="348.5"/>
<path class="st1" d="M251.5,351.5"/>
<path class="st1" d="M260.5,342.5"/>
<line class="st1" x1="251.5" y1="331.5" x2="260.5" y2="342.5"/>
<path class="st1" d="M272.5,335.5"/>
<path class="st1" d="M267.5,340.5"/>
<line class="st1" x1="263.5" y1="322.5" x2="275.5" y2="332.5"/>
<line class="st1" x1="277.5" y1="313.5" x2="289.5" y2="323.5"/>
<line class="st1" x1="290.5" y1="304.5" x2="301.5" y2="315.5"/>
<line class="st1" x1="301.5" y1="297.5" x2="312.5" y2="307.5"/>
<line class="st1" x1="251.5" y1="348.5" x2="312.5" y2="307.5"/>
<path class="st1" d="M393.5,291.5l-0.5-23.3c-0.2-1.3-1.7-1.9-2.8-1.2l-63,42.3c-1,0.7-1.6,1.9-1.5,3.2l0.8,24"/>
<ellipse class="st1" cx="337" cy="315" rx="4.5" ry="6.5"/>
<ellipse class="st1" cx="351" cy="305" rx="4.5" ry="6.5"/>
<ellipse class="st1" cx="364" cy="297" rx="4.5" ry="6.5"/>
<ellipse class="st1" cx="376" cy="288" rx="4.5" ry="6.5"/>
<ellipse class="st1" cx="389" cy="280" rx="4.5" ry="6.5"/>
<line class="st1" x1="313.5" y1="288.5" x2="322.5" y2="300.5"/>
<line class="st1" x1="322.5" y1="283.5" x2="331.5" y2="294.5"/>
<line class="st1" x1="334.5" y1="274.5" x2="346.5" y2="284.5"/>
<line class="st1" x1="348.5" y1="265.5" x2="360.5" y2="275.5"/>
<line class="st1" x1="361.5" y1="256.5" x2="372.5" y2="267.5"/>
<line class="st1" x1="372.5" y1="249.5" x2="383.5" y2="259.5"/>
<line class="st1" x1="322.5" y1="300.5" x2="383.5" y2="259.5"/>
<path class="st1" d="M455.5,249.5l-0.5-23.3c-0.2-1.3-1.7-1.9-2.8-1.2l-63,42.3c-1,0.7-1.6,1.9-1.5,3.2l0.8,24"/>
<ellipse class="st1" cx="399" cy="273" rx="4.5" ry="6.5"/>
<ellipse class="st1" cx="413" cy="263" rx="4.5" ry="6.5"/>
<ellipse class="st1" cx="426" cy="255" rx="4.5" ry="6.5"/>
<ellipse class="st1" cx="438" cy="246" rx="4.5" ry="6.5"/>
<ellipse class="st1" cx="451" cy="238" rx="4.5" ry="6.5"/>
<line class="st1" x1="376.5" y1="246.5" x2="386.5" y2="257.5"/>
<line class="st1" x1="386.5" y1="240.5" x2="395.5" y2="251.5"/>
<line class="st1" x1="398.5" y1="231.5" x2="410.5" y2="241.5"/>
<line class="st1" x1="412.5" y1="222.5" x2="424.5" y2="232.5"/>
<line class="st1" x1="425.5" y1="213.5" x2="436.5" y2="224.5"/>
<line class="st1" x1="436.5" y1="206.5" x2="447.5" y2="216.5"/>
<line class="st1" x1="386.5" y1="257.5" x2="447.5" y2="216.5"/>
<line class="st1" x1="31.5" y1="259.5" x2="212.5" y2="420.5"/>
</svg>
