<?xml version="1.0" encoding="utf-8"?>
<!-- Generator: Adobe Illustrator 22.1.0, SVG Export Plug-In . SVG Version: 6.00 Build 0)  -->
<svg version="1.1" id="Слой_2_1_" xmlns="http://www.w3.org/2000/svg" xmlns:xlink="http://www.w3.org/1999/xlink" x="0px"
	 y="0px" viewBox="0 0 1451.3 1451.3" style="enable-background:new 0 0 1451.3 1451.3;" xml:space="preserve">
<style type="text/css">
	.st0{fill:none;stroke:#000000;stroke-width:10;stroke-linecap:round;stroke-linejoin:round;stroke-miterlimit:10;}
	.st1{fill:none;stroke:#000000;stroke-width:5;stroke-linecap:round;stroke-linejoin:round;stroke-miterlimit:10;}
	.st2{fill:none;stroke:#000000;stroke-width:12;stroke-linecap:round;stroke-linejoin:round;stroke-miterlimit:10;}
	.st3{fill:none;stroke:#000000;stroke-width:7;stroke-linecap:round;stroke-linejoin:round;stroke-miterlimit:10;}
</style>
<path class="st0" d="M1336.2,358.3c0.4-4.4-1.8-8.6-5.7-10.8l-103.2-57.9c-12-6.8-22.3-16.3-30-27.8l-19.5-29.2
	c-4.9-7.4-13.3-11.6-22.1-11.1l-135.8,7.2c-9.4,0.5-18.7,2.5-27.5,5.8L349,478.8c-8.8,3.4-16.4,9.4-21.7,17.2
	c-22.3,32.6-32.8,60.2-46.8,78.1c-4.5,5.8-10,10.7-16.2,14.6l-90,53c-4,2.4-7.8,5.3-11.1,8.6l-23.8,23.8c-4.6,4.5-9.8,8.3-15.6,11.2
	l-83.6,41.5c-6.9,3.5-13.1,8.5-17.9,14.6l-2.6,3.2C13,753,9.6,763.5,9.9,774.2l1.8,59.8c0.2,7.7,2.2,15.3,5.7,22.2l231.1,450.1
	c4.4,8.6,14.6,12.4,23.5,8.7l1008-416.3c2.8-1.2,5.5-2.6,8.1-4.2l120.1-76.1c7.5-4.8,12.5-12.8,13.5-21.7l18.9-170.7
	c0.7-6.5-0.7-13.1-4.2-18.7l-39.1-63l8.3-85.4c0.6-6.1-4.3-11.2-10.4-10.9l-61.9,3.6c-2.5,0.2-4.7-1.9-4.6-4.4L1336.2,358.3z"/>
<path class="st0" d="M1332.5,451.6c-22.1-7.8-55.4-38.2-62.8-67.7c-2.5-10.3,2.8-21,12.6-25c13.7-5.6,37-7.1,52.8-6.6"/>
<line class="st0" x1="1436.4" y1="607.4" x2="1302.1" y2="665.4"/>
<line class="st0" x1="1302.1" y1="665.4" x2="606.1" y2="942.6"/>
<line class="st0" x1="606.1" y1="942.6" x2="336.9" y2="485.5"/>
<line class="st0" x1="319.7" y1="507.3" x2="589.9" y2="966.8"/>
<line class="st0" x1="589.9" y1="966.8" x2="606.1" y2="942.6"/>
<path class="st0" d="M589.9,966.8C527.2,1076,377.6,1161,284.7,1196.5c-5.5,2.1-10.3,5.8-13.8,10.5l-10.3,13.8
	c-5,6.8-7.6,15-7.4,23.4l1.7,69.1"/>
<path class="st0" d="M128.8,682.5l-68,71.8c-4.1,4.2-11,3.9-14.7-0.7l-16-20.3"/>
<path class="st0" d="M565.1,924.5l-167.6,92.9c-12.9,7.1-24.3,16.7-33.6,28.1l-82.5,101.3c-10.8,13.2-10.8,32.1-0.1,45.4l3.5,4.3"/>
<path class="st1" d="M30,881v-14.1c0-15.7,5.8-30.8,16.2-42.6l128.9-145.7c3.3-3.7,7-7,11.2-9.7l86.6-56.2c1.5-0.9,3.3-1.2,5-0.7
	c183.7,54.5,197.9,243.4,194,324.2c-0.1,3.5-2.2,6.6-5.3,8.1l-102.9,50.6l-130.4,146.6c-9.7,11-15.8,24.8-17.4,39.4l-4.9,45.8"/>
<path class="st1" d="M1397.3,544.3L1240,574.9c-1,0.2-2,0.5-2.9,0.8l-96.9,33.7c-3.9,1.3-6.5,5.2-6.2,9.3l2.8,43.3
	c0.5,6.9-3.5,13.3-9.8,15.9l-349,146c-6.7,2.8-14.2,2.4-20.6-1l-50.8-27.5c-4-2.2-8.8-2.5-13.1-0.8L552,850.7"/>
<path class="st1" d="M384.7,566.5l131.4-50.9c5.9-2.3,10.3-7.2,12.1-13.2l12.8-44c1.2-4.3,4.4-7.7,8.5-9.3l339.2-129.6
	c4.3-1.6,9.1-1.4,13.2,0.6l45.1,21.7c4.5,2.2,9.8,2.6,14.6,1.1l97.9-30l157.4-28.6"/>
<ellipse transform="matrix(0.5286 -0.8489 0.8489 0.5286 -718.0199 592.2289)" class="st1" cx="174.2" cy="942.6" rx="63.2" ry="30.9"/>
<ellipse transform="matrix(0.9095 -0.4158 0.4158 0.9095 -274.7248 543.5129)" class="st1" cx="1110.7" cy="902.6" rx="30.9" ry="21.8"/>
<ellipse class="st1" cx="1114" cy="533.2" rx="37" ry="33.3"/>
<path class="st2" d="M897.3,410.8l23.4-16.2c1.6-1.1,3.7-0.6,4.7,1l12.7,21.8"/>
<path class="st2" d="M871.3,426.2l13.8,22.2c1,1.6,3.1,2,4.6,1l18.4-12.5c1.3-0.9,1.8-2.5,1.2-3.9l0,0c0-0.1-0.1-0.2-0.2-0.4
	l-11.9-21.7"/>
<path class="st3" d="M1021.6,405.1l15.2-7.7c1-0.5,2.3,0,2.9,1l6.9,14.2"/>
<path class="st3" d="M1004.8,412.1l7.6,14.5c0.5,1,1.8,1.5,2.8,1l11.9-5.9c0.8-0.4,1.2-1.3,0.9-2.3l0,0c0-0.1-0.1-0.2-0.1-0.2
	l-6.5-14"/>
<path class="st2" d="M899.5,469.1l8.3,16.3c1,1.9,3.5,2.4,5.1,1l16-14.1c1.2-1,1.5-2.7,0.7-4l-7.9-14.5c-1-1.8-3.2-2.3-4.8-1.1
	L900.5,465C899.2,465.9,898.8,467.7,899.5,469.1z"/>
<path class="st2" d="M935.4,541l7.8,17.2c0.9,2,3.5,2.6,5.2,1.1l16.1-14c1.1-1,1.4-2.6,0.8-3.9l-7.5-15.5c-0.9-1.9-3.3-2.4-4.9-1.2
	L936.4,537C935.2,538,934.8,539.6,935.4,541z"/>
<path class="st2" d="M914.5,506.8l19.1-15.6c1.6-1.3,4-0.8,5,1l6.3,11.6c0.7,1.4,0.4,3-0.7,4L925,524.7"/>
<path class="st2" d="M988.4,580.1l-8.4-18.6c-0.9-2-3.5-2.6-5.1-1.1l-23.7,20.4"/>
<line class="st2" x1="968.8" y1="583.8" x2="963.5" y2="570.1"/>
<path class="st2" d="M1006,617.4l-8.3-18.5c-0.9-2-3.5-2.6-5.1-1.2L968.8,618"/>
<line class="st2" x1="986.5" y1="621" x2="981.1" y2="607.4"/>
<line class="st2" x1="1012.3" y1="652.9" x2="1009.2" y2="644.9"/>
<line class="st2" x1="993" y1="654.9" x2="1009.2" y2="644.9"/>
<line class="st2" x1="999.5" y1="670.9" x2="993" y2="654.9"/>
<line class="st2" x1="1021.7" y1="680.8" x2="1006" y2="688.2"/>
<line class="st2" x1="1009.3" y1="666.7" x2="1001.1" y2="670.9"/>
<line class="st3" x1="1018.4" y1="358.1" x2="988.4" y2="372.2"/>
<line class="st3" x1="999.4" y1="396.8" x2="988.4" y2="372.2"/>
<line class="st3" x1="1013.3" y1="390" x2="999.4" y2="396.8"/>
<line class="st3" x1="1008.2" y1="379.8" x2="1013.3" y2="390"/>
<line class="st3" x1="1029.3" y1="380.5" x2="1018.4" y2="358.1"/>
<line class="st3" x1="1057.4" y1="431.7" x2="1024.4" y2="448.7"/>
<line class="st3" x1="1052.5" y1="449.9" x2="1057.4" y2="431.7"/>
<line class="st3" x1="1068" y1="453.9" x2="1052.5" y2="449.9"/>
<line class="st3" x1="1036.2" y1="471.6" x2="1068" y2="453.9"/>
</svg>
