<?xml version="1.0" encoding="utf-8"?>
<!-- Generator: Adobe Illustrator 22.1.0, SVG Export Plug-In . SVG Version: 6.00 Build 0)  -->
<svg version="1.1" xmlns="http://www.w3.org/2000/svg" xmlns:xlink="http://www.w3.org/1999/xlink" x="0px" y="0px"
	 viewBox="0 0 256 256" style="enable-background:new 0 0 256 256;" xml:space="preserve">
<style type="text/css">
	.st0{display:none;}
	.st1{fill:none;stroke:#000000;stroke-width:5;stroke-miterlimit:10;}
	.st2{fill:none;stroke:#000000;stroke-miterlimit:10;}
	.st3{fill:none;stroke:#000000;stroke-width:3;stroke-linecap:round;stroke-miterlimit:10;}
	.st4{fill:none;stroke:#000000;stroke-linecap:round;stroke-miterlimit:10;}
	.st5{fill:none;stroke:#000000;stroke-width:4;stroke-linecap:square;stroke-miterlimit:10;}
	.st6{fill:none;stroke:#000000;stroke-width:5;stroke-linecap:square;stroke-miterlimit:10;}
	.st7{fill:none;stroke:#000000;stroke-width:5;stroke-linecap:round;stroke-miterlimit:10;}
	.st8{fill:none;stroke:#000000;stroke-width:9;stroke-linecap:round;stroke-miterlimit:10;}
	.st9{fill:none;stroke:#000000;stroke-width:3;stroke-linecap:round;stroke-linejoin:round;stroke-miterlimit:10;}
</style>
<g id="Слой_1" class="st0">
	
		<image style="display:inline;overflow:visible;" width="1000" height="1000" xlink:href="7D8C0B89.jpg"  transform="matrix(0.2562 0 0 0.2562 0 0)">
	</image>
</g>
<g id="Слой_2">
	<path class="st1" d="M136.5,44.5c-0.4-0.4-0.8-0.8-1.2-1.1C120.4,30.2,95.8,27,77.6,34.9L52.8,45.7c-11.3,5.2-13.9,20.1-5,28.8
		l104.1,102.7c12.8,12.6,32.8,14.5,47.7,4.4l28.7-19.4c7.1-4.8,8-14.8,2-20.8l-68-68c-0.9-0.9-6-6.9-6.9-7.9
		C151.9,57.8,146.2,50.9,136.5,44.5L136.5,44.5z"/>
	<ellipse transform="matrix(0.4521 -0.892 0.892 0.4521 6.6256 135.8166)" class="st2" cx="113.9" cy="62.5" rx="25.2" ry="39.9"/>
	<path class="st3" d="M154.5,64.5c3,7.2,3.5,13.8,0.4,19.9c-7.5,14.8-32.3,17.4-55.3,5.7S64,56.9,71.5,42.1c1.6-3.2,3.9-5.6,7-7.6"
		/>
	<path class="st4" d="M194.1,150.2c-0.1,1.4-0.6,2.6-1.5,3.6c-3,3.2-9.3,2.1-14.1-2.3s-6.2-10.7-3.1-13.9c3-3.2,9.3-2.1,14.1,2.3
		C192.7,143,194.4,147,194.1,150.2"/>
	<path class="st3" d="M198.5,151.2c-0.2,1.9-1,3.7-2.3,5c-4.3,4.6-13.1,3.3-19.6-2.9c-6.5-6.1-8.3-14.8-4-19.4
		c4.3-4.6,13.1-3.3,19.6,2.9C196.8,141.2,199,146.7,198.5,151.2"/>
	<line class="st4" x1="110.5" y1="65.5" x2="119.5" y2="46.5"/>
	<line class="st4" x1="132.5" y1="53.5" x2="119.5" y2="46.5"/>
	<line class="st4" x1="121.5" y1="73.5" x2="132.5" y2="53.5"/>
	<path class="st4" d="M110.5,65.5L118,73c0.3,0.3,0.7,0.5,1.1,0.5h2.4"/>
	<path class="st4" d="M132.5,53.5l-4.1-0.2c-0.6,0.1-1.1,0-1.6-0.4l-7.3-6.4"/>
	<line class="st4" x1="139.5" y1="59.5" x2="136.5" y2="61.5"/>
	<line class="st4" x1="145.5" y1="70.5" x2="136.5" y2="61.5"/>
	<line class="st4" x1="126.5" y1="79.5" x2="136.5" y2="61.5"/>
	<line class="st4" x1="133.5" y1="87.5" x2="126.5" y2="79.5"/>
	<line class="st4" x1="145.5" y1="70.5" x2="133.5" y2="87.5"/>
	<line class="st4" x1="139.5" y1="59.5" x2="145.5" y2="70.5"/>
	<ellipse transform="matrix(0.5 -0.866 0.866 0.5 -14.0329 139.3123)" class="st4" cx="113.6" cy="81.8" rx="3.4" ry="4.7"/>
	<line class="st4" x1="77.5" y1="56.5" x2="83.5" y2="42.5"/>
	<line class="st4" x1="88.5" y1="40.5" x2="83.5" y2="42.5"/>
	<line class="st4" x1="79.5" y1="62.5" x2="88.5" y2="40.5"/>
	<path class="st5" d="M80,60l8.9-5c0.2-0.1,0.4-0.2,0.6-0.3c3.2-2.1,3.4-6.7,0.7-9.4l-0.7-0.7"/>
	<path class="st6" d="M234,150v9.2c0,3.2-0.6,6.3-1.7,9.3l-3.7,9.9c-2.3,6.2-6.8,11.3-12.7,14.3L177.3,213
		c-10.3,5.4-22.9,3.5-31.3-4.6L40.4,105.2c-5.2-5.1-7.5-12.6-5.9-19.7l0.6-2.9c0.5-2.4,0.8-4.8,0.8-7.3v-1c0-2.2,0.5-4.3,1.6-6.3
		l6.9-14.6"/>
	<path class="st7" d="M57.5,146.5L54,143c-0.3-0.3-0.4-0.7-0.2-1.1l1.3-2.6c0.2-0.5,0.1-1.1-0.2-1.4l-6.6-6.6
		c-0.5-0.5-0.8-1.1-0.9-1.8l-0.4-3c-0.3-2.6,0.2-5.2,1.5-7.5l2-3.5"/>
	<line class="st7" x1="61.5" y1="144.5" x2="57.5" y2="146.5"/>
	<path class="st7" d="M91.5,155.5l-7.7,0.7c-2.2,0.2-4.4,0-6.5-0.6l-6.5-1.8c-0.8-0.2-1.6-0.7-2.2-1.3l-7.1-8"/>
	<line class="st8" x1="55.5" y1="161.5" x2="61.5" y2="149.5"/>
	<path class="st9" d="M131.2,128.8l-3.7-4.6c-0.2-0.3-0.2-0.8,0.1-1l4.3-2.9"/>
	<path class="st9" d="M134.7,133.9l4.3-3.2c0.3-0.2,0.4-0.7,0.1-1l-2.8-3.6c-0.2-0.2-0.5-0.3-0.8-0.2l0,0c0,0,0,0-0.1,0l-4.3,2.8"/>
	<path class="st9" d="M143.1,127.5l3.2-1.9c0.4-0.2,0.4-0.7,0.1-1.1l-3.1-3.1c-0.2-0.2-0.6-0.3-0.8-0.1l-2.8,1.8
		c-0.3,0.2-0.4,0.7-0.1,1l2.7,3.2C142.4,127.6,142.8,127.7,143.1,127.5z"/>
	<path class="st9" d="M157.3,119.1l3.4-1.9c0.4-0.2,0.5-0.8,0.2-1.1l-3.1-3.1c-0.2-0.2-0.5-0.3-0.8-0.1l-3.1,1.8
		c-0.4,0.2-0.5,0.7-0.2,1l2.8,3.2C156.7,119.2,157,119.2,157.3,119.1z"/>
	<path class="st9" d="M150.6,123.9l-3.5-3.7c-0.3-0.3-0.2-0.8,0.1-1l2.3-1.5c0.3-0.2,0.6-0.1,0.8,0.1l3.7,3.7"/>
	<path class="st9" d="M164.5,107.7l-3.7,2c-0.4,0.2-0.5,0.7-0.2,1.1l4.5,4.6"/>
	<line class="st9" x1="165.5" y1="111.6" x2="162.8" y2="112.9"/>
	<path class="st9" d="M171.9,103.5l-3.7,2c-0.4,0.2-0.5,0.7-0.2,1.1l4.5,4.6"/>
	<line class="st9" x1="172.9" y1="107.5" x2="170.2" y2="108.7"/>
</g>
</svg>
