<svg id="Layer_1" enable-background="new 0 0 512 512" height="512" viewBox="0 0 512 512" width="512" xmlns="http://www.w3.org/2000/svg"><g><path d="m407.07 30.54c-2.52-5.96-6.13-11.3-10.72-15.89s-9.93-8.2-15.89-10.72c-6.16-2.61-12.71-3.93-19.46-3.93h-210c-6.75 0-13.3 1.32-19.46 3.93-5.96 2.52-11.3 6.13-15.89 10.72s-8.2 9.93-10.72 15.89c-2.61 6.16-3.93 12.71-3.93 19.46v412c0 6.75 1.32 13.3 3.93 19.46 2.52 5.96 6.12 11.3 10.72 15.89 4.59 4.59 9.93 8.2 15.89 10.72 6.16 2.61 12.71 3.93 19.46 3.93h210c6.75 0 13.3-1.32 19.46-3.93 5.96-2.52 11.3-6.13 15.89-10.72s8.2-9.93 10.72-15.89c2.61-6.16 3.93-12.71 3.93-19.46v-54.86c0-5.51-4.49-10-10-10s-10 4.49-10 10v54.86c-.03 16.51-13.49 29.97-30 30h-210c-16.51-.03-29.97-13.49-30-30v-412c.03-16.51 13.49-29.97 30-30h210c16.51.03 29.97 13.49 30 30v267.14c0 5.52 4.49 10 10 10 5.52 0 10-4.48 10-10v-267.14c0-6.75-1.32-13.3-3.93-19.46z"/><circle cx="401" cy="362.14" r="10"/><path d="m256 45c-60.654 0-110 49.346-110 110s49.346 110 110 110 110-49.346 110-110-49.346-110-110-110zm10 20.559v19.441h-20v-19.441c3.284-.365 6.62-.559 10-.559s6.716.194 10 .559zm-20 178.882v-19.441h20v19.441c-3.284.365-6.62.559-10 .559s-6.716-.194-10-.559zm40-4.589v-24.852c0-5.523-4.477-10-10-10h-40c-5.523 0-10 4.477-10 10v24.852c-34.92-12.383-60-45.741-60-84.852s25.08-72.469 60-84.852v24.852c0 5.523 4.477 10 10 10h40c5.523 0 10-4.477 10-10v-24.852c34.92 12.383 60 45.741 60 84.852s-25.08 72.469-60 84.852z"/><circle cx="211" cy="155" r="10"/><circle cx="301" cy="155" r="10"/><path d="m330.246 372.754c2.559 0 5.119-.977 7.071-2.929 3.905-3.905 3.905-10.237 0-14.142-21.72-21.721-50.599-33.683-81.317-33.683s-59.597 11.962-81.317 33.683c-3.905 3.905-3.905 10.237 0 14.142s10.237 3.905 14.142 0c17.943-17.943 41.8-27.825 67.175-27.825s49.232 9.882 67.175 27.825c1.953 1.953 4.512 2.929 7.071 2.929z"/><path d="m301.962 401.038c2.559 0 5.119-.976 7.071-2.929 3.905-3.905 3.905-10.237 0-14.143-14.166-14.165-33-21.966-53.033-21.966s-38.867 7.801-53.033 21.967c-3.905 3.905-3.905 10.237 0 14.143 3.905 3.905 10.237 3.905 14.143 0 10.388-10.389 24.199-16.11 38.89-16.11s28.502 5.721 38.891 16.109c1.952 1.953 4.512 2.929 7.071 2.929z"/><path d="m221 437c0 19.299 15.701 35 35 35s35-15.701 35-35-15.701-35-35-35-35 15.701-35 35zm50 0c0 8.271-6.729 15-15 15s-15-6.729-15-15 6.729-15 15-15 15 6.729 15 15z"/></g></svg>