<?xml version="1.0" encoding="utf-8"?>
<!-- Generator: Adobe Illustrator 22.1.0, SVG Export Plug-In . SVG Version: 6.00 Build 0)  -->
<svg version="1.1" id="Слой_2" xmlns="http://www.w3.org/2000/svg" xmlns:xlink="http://www.w3.org/1999/xlink" x="0px" y="0px"
	 viewBox="0 0 1451.3 1451.3" style="enable-background:new 0 0 1451.3 1451.3;" xml:space="preserve">
<style type="text/css">
	.st0{fill:none;stroke:#000000;stroke-width:15;stroke-miterlimit:10;}
	.st1{fill:none;stroke:#000000;stroke-width:10;stroke-miterlimit:10;}
</style>
<ellipse transform="matrix(0.9999 -1.093442e-02 1.093442e-02 0.9999 -1.5997 8.0101)" class="st0" cx="731.7" cy="150.3" rx="356.7" ry="127.7"/>
<path class="st0" d="M375.1,154.2l-1.8,0c-15.6,0.2-29.1,10.9-32.8,26.1L154.8,943.1c-2.9,12.1-3.5,24.6-1.7,36.9l17.7,120.1
	c3.1,20.9,11.6,40.6,24.8,57.2l194.2,244.3c10.7,13.5,26.9,21.4,44.1,21.6l548.1,5.6c15.5,0.2,30.5-5.9,41.4-16.9l233.5-233.1
	c10.8-10.8,17.9-24.6,20.3-39.7l20.8-128.5c2.1-13,1.8-26.2-1-39.1l-170.3-794.7c-3.8-17.9-19.8-30.7-38.2-30.5h0"/>
<ellipse transform="matrix(0.9999 -1.093442e-02 1.093442e-02 0.9999 -1.9079 8.0362)" class="st1" cx="734" cy="178.5" rx="313.4" ry="99.5"/>
<path class="st1" d="M391.4,1235.2l286.9-839c9.1-40.8-26.2-87.6-64.4-94.3l-200.7-45.8c-1.6-0.4-3.3-0.6-4.9-0.7
	c-44.7-1.3-78.5,30.7-77,70.6l54.9,908.4C386.4,1237.4,390.4,1238,391.4,1235.2z"/>
<path class="st1" d="M1017.3,1241.6L750.8,394.9c-7.7-41.1,33.3-87.5,75.2-93.5l221-42.5c1.8-0.3,3.6-0.6,5.4-0.6
	c48.7-0.5,83.8,32.1,79.9,72.2l-107.8,929.3C1024.2,1262.7,1018.2,1244.4,1017.3,1241.6z"/>
<polyline class="st1" points="154.8,943.1 387.4,1246.4 1024.6,1259.8 1297.9,1010.6 "/>
<line class="st1" x1="387.4" y1="1246.4" x2="402.7" y2="1413.6"/>
<line class="st1" x1="1024.6" y1="1259.8" x2="1012.6" y2="1420.3"/>
<path d="M494.4,1295.3c20.5,0,40.6,0,61.2,0c0,4.8,0.2,9.4-0.2,14c-0.1,0.9-2.3,2.3-3.6,2.4c-11.9,0.2-23.9,0.3-35.8,0
	c-4-0.1-5.1,1.1-5,5c0.3,9.2,0.1,18.5,0.1,28.2c14.7,0,29.1,0,43.9,0c0,21.3,0,42.1,0,63.2c-20.1,0-40.1,0-60.6,0
	c0-5.2,0-10.4,0-16.2c7.1,0,14,0,21,0c6.6,0,13.1-0.1,19.7,0c2.5,0,3.5-0.8,3.5-3.3c-0.1-7.3-0.2-14.6,0-21.9c0.1-3.1-1.3-3.7-4-3.7
	c-13.3,0.1-26.5,0-40.2,0C494.4,1340.4,494.4,1318,494.4,1295.3z"/>
<path d="M573.3,1346.3c20.5,0,40.6,0,61,0c0,20.7,0,41.3,0,62.2c-20.3,0-40.5,0-61,0C573.3,1387.9,573.3,1367.3,573.3,1346.3z
	 M590.2,1390.7c9.2,0,18.2,0,27.2,0c0-9.2,0-18.1,0-27.1c-9.2,0-18.2,0-27.2,0C590.2,1372.8,590.2,1381.7,590.2,1390.7z"/>
<path d="M723.3,1346.2c20.5,0,40.4,0,60.7,0c0,20.6,0,41,0,61.8c-20.2,0-40.4,0-60.7,0C723.3,1387.4,723.3,1367,723.3,1346.2z
	 M740.2,1363.7c0,9.3,0,18.1,0,27.1c9.1,0,17.9,0,26.6,0c0-9.2,0-18.1,0-27.1C757.9,1363.7,749.4,1363.7,740.2,1363.7z"/>
<path d="M872.6,1346.4c20.4,0,40.5,0,60.8,0c0,5.3,0,10.4,0,16.2c-14.9,0-29.5,0-44.4,0c0,2.9,0,5.3,0,8.2c14.9,0,29.5,0,44.4,0
	c0,6,0,11.5,0,17.5c-1.6,0.1-3.2,0.3-4.8,0.3c-11.8,0-23.6,0.1-35.3-0.1c-3.4-0.1-4.8,0.8-4.6,4.5c0.3,5,0.1,10.1,0.1,15.4
	c-5.6,0-10.7,0-16.2,0C872.6,1387.8,872.6,1367.3,872.6,1346.4z"/>
<path d="M858.9,1346.5c0,5.2,0,10.2,0,15.8c-14.9,0-29.5,0-44.5,0c0,3,0,5.5,0,8.3c8.2,0,16.2,0,24.2,0c5.7,0,11.3-0.1,17,0.1
	c1.1,0.1,3.1,1.5,3.2,2.4c0.3,4.9,0.1,9.8,0.1,15.3c-3.3,0-6.1,0-8.8,0c-10.6,0-21.2,0.1-31.8,0c-3.3,0-4.5,1-4.3,4.4
	c0.2,5,0.1,10.1,0.1,15.5c-5.5,0-10.7,0-16.2,0c0-20.4,0-40.9,0-61.7C818,1346.5,838.2,1346.5,858.9,1346.5z"/>
<path d="M648.4,1346.3c20.5,0,40.6,0,61,0c0,20.6,0,41.1,0,61.8c-5.3,0-10.4,0-16,0c0-10.9,0-21.5,0-32c0-4,1.2-9.7-0.8-11.5
	c-2.4-2.1-7.8-1-11.9-1.1c-3.6-0.1-7.2,0.3-10.7-0.1c-4.4-0.5-6,0.9-5.8,5.6c0.4,11.5,0.1,23,0.1,34.4c0,1.6,0,3.2,0,5
	c-5.5,0-10.5,0-15.8,0C648.4,1387.6,648.4,1367.1,648.4,1346.3z"/>
<path d="M588.5,1335.1c-1.1-1.3-2.1-2.3-3.3-3.6c7.5-8,11.8-17.3,11.7-28.2c-0.1-10.8-4-20-11.7-28c1.2-1.3,2.2-2.4,3.3-3.5
	C605.4,1285.4,608,1317.6,588.5,1335.1z"/>
<path d="M579.2,1325.7c-1.1-1.2-2.1-2.3-3.3-3.6c10.3-12.5,10.4-25-0.1-37.7c1.1-1.2,2.1-2.4,3.2-3.6
	C591.9,1292.5,592.1,1312.2,579.2,1325.7z"/>
<path d="M565.4,1295.1c1.3-1.5,2.2-2.5,3.2-3.6c7.4,6.4,7.5,16.6,0.4,23.2c-1-0.9-2.1-1.9-3.5-3.1
	C569.6,1306.2,570.3,1300.8,565.4,1295.1z"/>
</svg>
