<?xml version="1.0" encoding="utf-8"?>
<!-- Generator: Adobe Illustrator 22.1.0, SVG Export Plug-In . SVG Version: 6.00 Build 0)  -->
<svg version="1.1" xmlns="http://www.w3.org/2000/svg" xmlns:xlink="http://www.w3.org/1999/xlink" x="0px" y="0px"
	 viewBox="0 0 1451.3 1451.3" style="enable-background:new 0 0 1451.3 1451.3;" xml:space="preserve">
<style type="text/css">
	.st0{display:none;}
	.st1{fill:none;stroke:#000000;stroke-width:15;stroke-miterlimit:10;}
	.st2{fill:none;stroke:#000000;stroke-width:10;stroke-miterlimit:10;}
	.st3{fill:none;stroke:#000000;stroke-width:5;stroke-miterlimit:10;}
</style>
<g id="Слой_1" class="st0">
	
		<image style="display:inline;overflow:visible;" width="325" height="318" xlink:href="7803B84B.jpg"  transform="matrix(4.4612 0 0 4.4612 0.7244 16.3386)">
	</image>
</g>
<g id="Слой_2">
	<path class="st1" d="M960.1,72.1c-186.5,0-312.6-3-337.5-3c-178.4,6.9-277.2,67.6-340.5,177c-134.1,246.4-164.4,637.8-171,747l0,0
		c0.2,127.7,119.7,229.8,263.5,238.3c42.5,3.2,176.1,7.6,395,7.6c82,1,221.5-37.6,291-208.5c134.3-332.4,140.6-676.2,132-714
		C1192.6,181.5,1088.6,72.1,960.1,72.1z"/>
	<path class="st1" d="M149,1111.8c94.8,146.1,271.7,246,316.1,263.8l0,0c52.5,21.2,244.2,43.1,480,24l0,0
		c40.2-2.5,131.8-24.5,205.7-108.1c16-18.1,29-38.8,38.6-61.1C1361.7,829.3,1353,447,1307.2,381.8c-0.4-0.5-0.8-1-1.2-1.5
		l-182.8-238"/>
	
		<ellipse transform="matrix(0.6726 -0.74 0.74 0.6726 -259.2119 681.5001)" class="st2" cx="640.6" cy="633.7" rx="312.6" ry="275.7"/>
	
		<ellipse transform="matrix(0.6726 -0.74 0.74 0.6726 -259.2119 681.5001)" class="st2" cx="640.6" cy="633.7" rx="346.7" ry="305.7"/>
	<path class="st2" d="M743.7,361l69,92c2.2,2.9,3.4,6.5,3.4,10.2v33.2c0,5-4.1,9.1-9.1,9.1h-38.5c-6.1,0-11.1-5-11.1-11.1v-27.9
		c0-5.8-2-11.4-5.6-15.9l-68.3-84.7c-3.3-4.1-0.4-10.3,4.9-10.3h44.5C737.1,355.6,741.1,357.6,743.7,361z"/>
	<line class="st3" x1="385" y1="600" x2="476.5" y2="689"/>
	<line class="st3" x1="442.5" y1="492" x2="385" y2="600"/>
	<line class="st3" x1="425.5" y1="593" x2="505.5" y2="677"/>
	<line class="st3" x1="385" y1="600" x2="425.5" y2="593"/>
	<line class="st3" x1="442.5" y1="492" x2="425.5" y2="593"/>
	<line class="st3" x1="476.5" y1="689" x2="505.5" y2="677"/>
	<line class="st3" x1="526.5" y1="583" x2="505.5" y2="677"/>
	<path class="st3" d="M526.5,583c57.3-70.6,158.2-125.8,229.8-123.7"/>
	<path class="st3" d="M925.9,530.8c0-27.3-51.9-67.5-109.8-67.5"/>
	<polygon class="st3" points="658,907 649,892 600,889 584,911 	"/>
	<line class="st3" x1="363" y1="674" x2="399" y2="683"/>
	<line class="st3" x1="373" y1="787.4" x2="399" y2="683"/>
	<line class="st3" x1="491" y1="769" x2="399" y2="683"/>
	<path class="st3" d="M491,769c-17.6,79.5,29.1,153.9,93,160.5"/>
	<line class="st3" x1="363" y1="674" x2="373" y2="787.4"/>
	
		<ellipse transform="matrix(0.4437 -0.8962 0.8962 0.4437 -320.596 947.7458)" class="st3" cx="603.1" cy="732.1" rx="45.8" ry="37"/>
	<path class="st3" d="M857.5,782.5c-18.3-9.1-24.1-34.8-12.9-57.5c11.2-22.7,35.2-33.7,53.5-24.6"/>
	<line class="st3" x1="898.1" y1="700.4" x2="912.1" y2="710.1"/>
	<line class="st3" x1="857.5" y1="782.5" x2="873.7" y2="782.5"/>
</g>
</svg>
