<?xml version="1.0" encoding="utf-8"?>
<!-- Generator: Adobe Illustrator 22.1.0, SVG Export Plug-In . SVG Version: 6.00 Build 0)  -->
<svg version="1.1" xmlns="http://www.w3.org/2000/svg" xmlns:xlink="http://www.w3.org/1999/xlink" x="0px" y="0px"
	 viewBox="0 0 1451.3 1451.3" style="enable-background:new 0 0 1451.3 1451.3;" xml:space="preserve">
<style type="text/css">
	.st0{display:none;}
	.st1{fill:none;stroke:#000000;stroke-width:20;stroke-miterlimit:10;}
	.st2{fill:none;stroke:#000000;stroke-width:10;stroke-miterlimit:10;}
	.st3{fill:none;stroke:#000000;stroke-width:5;stroke-linecap:round;stroke-miterlimit:10;}
</style>
<g id="Слой_1" class="st0">
	
		<image style="display:inline;overflow:visible;" width="522" height="522" xlink:href="69A24B22.jpg"  transform="matrix(2.7778 0 0 2.7778 1 1.3386)">
	</image>
</g>
<g id="Слой_2">
	<path class="st1" d="M968,1425.5l-902.4-103c-7.2-0.8-12.1-7.5-10.8-14.6L283,48.4c1.1-6,6.2-10.4,12.3-10.5l904.3-22.7
		c5.7-0.1,10.1,4.9,9.2,10.6l-229,1390.9C978.9,1422.3,973.7,1426.2,968,1425.5z"/>
	<path class="st1" d="M968,1425.5l81.1,12.3c5.1,1.1,10.1-2.3,11.1-7.4L1294.9,59.7c0.9-5.1-2.1-10.2-7-11.9l-88.3-32.7"/>
	<path class="st1" d="M1219.8,498.2c112,191.8,8.2,535.2-103.5,604.5"/>
	<line class="st1" x1="1209" y1="561.4" x2="1250.7" y2="571.7"/>
	<line class="st1" x1="1194.4" y1="646.6" x2="1267.2" y2="674.2"/>
	<line class="st1" x1="1180.7" y1="726.6" x2="1265.6" y2="757.1"/>
	<line class="st1" x1="1169.8" y1="789.8" x2="1257.8" y2="816.4"/>
	<line class="st1" x1="1160.8" y1="842.8" x2="1245.5" y2="873.2"/>
	
		<ellipse transform="matrix(0.2392 -0.971 0.971 0.2392 191.953 906.6473)" class="st2" cx="674.5" cy="330.8" rx="51.8" ry="32.6"/>
	<path class="st3" d="M659.2,322.9c10.5-8.7,26.2-7.9,33.1,1.4"/>
	<path class="st3" d="M663,332.5c7.7-4.7,14.1-6.1,23.6,1"/>
	<path class="st3" d="M665.7,340.9c4.8-3.5,12-2.6,14.7,1.1"/>
	<circle class="st3" cx="671.7" cy="354.1" r="4.1"/>
</g>
<g id="Слой_3">
	
		<ellipse transform="matrix(0.3427 -0.9395 0.9395 0.3427 -246.4889 939.7174)" class="st3" cx="548.3" cy="646" rx="14.5" ry="9.7"/>
	
		<ellipse transform="matrix(0.3427 -0.9395 0.9395 0.3427 -226.8469 902.4487)" class="st3" cx="531.5" cy="613.3" rx="11.4" ry="7.6"/>
	
		<ellipse transform="matrix(0.2194 -0.9756 0.9756 0.2194 -194.6551 960.9866)" class="st3" cx="503.2" cy="602.1" rx="9.9" ry="6.6"/>
	
		<ellipse transform="matrix(0.2194 -0.9756 0.9756 0.2194 -228.0072 938.6953)" class="st3" cx="472.6" cy="611.8" rx="7.7" ry="5.1"/>
	
		<ellipse transform="matrix(0.2194 -0.9756 0.9756 0.2194 -279.1573 935.9779)" class="st3" cx="445.3" cy="642.4" rx="7.2" ry="4.8"/>
	
		<ellipse transform="matrix(5.412870e-02 -0.9985 0.9985 5.412870e-02 -275.9785 1077.8511)" class="st3" cx="430.9" cy="684.6" rx="5" ry="3.3"/>
	
		<ellipse transform="matrix(0.3427 -0.9395 0.9395 0.3427 -402.2666 885.7216)" class="st3" cx="431.8" cy="730.3" rx="14.3" ry="9.5"/>
	
		<ellipse transform="matrix(0.2194 -0.9756 0.9756 0.2194 -394.3832 1030.7473)" class="st3" cx="447" cy="761.8" rx="11.3" ry="7.5"/>
	
		<ellipse transform="matrix(0.2194 -0.9756 0.9756 0.2194 -384.3878 1066.877)" class="st3" cx="474.5" cy="773.7" rx="8.7" ry="5.8"/>
	
		<ellipse transform="matrix(0.1785 -0.9839 0.9839 0.1785 -334.8436 1126.5903)" class="st3" cx="507.2" cy="763.8" rx="7.1" ry="4.7"/>
	
		<ellipse transform="matrix(0.1785 -0.9839 0.9839 0.1785 -283.1181 1127.9336)" class="st3" cx="533.9" cy="733.5" rx="5.9" ry="3.9"/>
	<ellipse transform="matrix(0.1785 -0.9839 0.9839 0.1785 -229.431 1107.1321)" class="st3" cx="548.3" cy="691" rx="4" ry="2.6"/>
	
		<ellipse transform="matrix(0.3427 -0.9395 0.9395 0.3427 -73.6913 1212.0098)" class="st3" cx="829.3" cy="658.7" rx="14.5" ry="9.7"/>
	
		<ellipse transform="matrix(0.3427 -0.9395 0.9395 0.3427 -54.0493 1174.7411)" class="st3" cx="812.4" cy="626" rx="11.4" ry="7.6"/>
	
		<ellipse transform="matrix(0.2194 -0.9756 0.9756 0.2194 12.3184 1245.0052)" class="st3" cx="784.2" cy="614.8" rx="9.9" ry="6.6"/>
	
		<ellipse transform="matrix(0.2194 -0.9756 0.9756 0.2194 -21.0338 1222.7139)" class="st3" cx="753.6" cy="624.5" rx="7.7" ry="5.1"/>
	
		<ellipse transform="matrix(0.2194 -0.9756 0.9756 0.2194 -72.1838 1219.9965)" class="st3" cx="726.3" cy="655.1" rx="7.2" ry="4.8"/>
	
		<ellipse transform="matrix(5.412870e-02 -0.9985 0.9985 5.412870e-02 -22.855 1370.3976)" class="st3" cx="711.9" cy="697.3" rx="5" ry="3.3"/>
	
		<ellipse transform="matrix(0.3427 -0.9395 0.9395 0.3427 -229.469 1158.0139)" class="st3" cx="712.8" cy="743" rx="14.3" ry="9.5"/>
	
		<ellipse transform="matrix(0.2194 -0.9756 0.9756 0.2194 -187.4098 1314.7659)" class="st3" cx="727.9" cy="774.5" rx="11.3" ry="7.5"/>
	
		<ellipse transform="matrix(0.2194 -0.9756 0.9756 0.2194 -177.4144 1350.8955)" class="st3" cx="755.5" cy="786.3" rx="8.7" ry="5.8"/>
	
		<ellipse transform="matrix(0.1785 -0.9839 0.9839 0.1785 -116.4677 1413.4641)" class="st3" cx="788.2" cy="776.5" rx="7.1" ry="4.7"/>
	
		<ellipse transform="matrix(0.1785 -0.9839 0.9839 0.1785 -64.7422 1414.8074)" class="st3" cx="814.9" cy="746.2" rx="5.9" ry="3.9"/>
	
		<ellipse transform="matrix(0.1785 -0.9839 0.9839 0.1785 -11.0551 1394.0057)" class="st3" cx="829.3" cy="703.6" rx="4" ry="2.6"/>
</g>
</svg>
