<svg height="511pt" viewBox="-6 0 511 511.99923" width="511pt" xmlns="http://www.w3.org/2000/svg"><path d="m126.621094 174.824219c-4.144532 0-7.503906 3.359375-7.503906 7.503906v8.714844c0 4.144531 3.359374 7.503906 7.503906 7.503906 4.140625 0 7.5-3.359375 7.5-7.503906v-8.714844c0-4.144531-3.359375-7.503906-7.5-7.503906zm0 0"/><path d="m222.949219 198.546875c4.144531 0 7.503906-3.359375 7.503906-7.503906v-8.714844c0-4.144531-3.359375-7.503906-7.503906-7.503906-4.140625 0-7.5 3.359375-7.5 7.503906v8.714844c0 4.144531 3.359375 7.503906 7.5 7.503906zm0 0"/><path d="m192.320312 195.375c2.726563-3.117188 2.410157-7.859375-.710937-10.585938-3.117187-2.726562-7.859375-2.40625-10.585937.710938-1.496094 1.710938-3.769532 2.695312-6.238282 2.695312s-4.742187-.984374-6.242187-2.695312c-2.726563-3.121094-7.464844-3.4375-10.585938-.710938-3.117187 2.726563-3.4375 7.464844-.710937 10.585938 4.347656 4.972656 10.738281 7.824219 17.539062 7.824219 6.796875 0 13.1875-2.851563 17.535156-7.824219zm0 0"/><path d="m267.644531 184.105469c0-51.203125-41.65625-92.859375-92.859375-92.859375s-92.863281 41.65625-92.863281 92.859375 41.660156 92.863281 92.863281 92.863281 92.859375-41.660156 92.859375-92.863281zm-170.71875 0c0-42.929688 34.929688-77.855469 77.859375-77.855469 42.929688 0 77.855469 34.925781 77.855469 77.855469 0 42.933593-34.925781 77.859375-77.855469 77.859375-42.929687 0-77.859375-34.925782-77.859375-77.859375zm0 0"/><path d="m214.460938 353.980469c7.800781 10.15625 16.222656 18.484375 29.984374 18.484375h50.691407c17.328125 0 31.695312-14.089844 32.023437-31.414063.164063-8.507812-3.089844-16.597656-9.15625-22.78125-6.152344-6.269531-14.6875-9.867187-23.417968-9.867187h-34.359376s-15.015624-19.539063-15.042968-19.578125c-6.234375-8.113281-17.535156-10.824219-26.835938-6.671875-13.75 6.136718-28.40625 9.246094-43.5625 9.246094-17.824218 0-35.484375-4.480469-51.074218-12.957032-4.3125-2.347656-9.03125-3.867187-14.015626-4.519531l-37.171874-4.871094c-9.8125-1.289062-19.8125 2.113281-26.8125 9.109375l-35.84375 35.847656c-12.488282 12.488282-12.488282 32.804688 0 45.296876 12.335937 12.339843 32.976562 12.316406 45.296874 0l24.683594-24.683594 14.703125 1.925781-12.925781 39.941406c-3.015625 6.511719-4.605469 13.730469-4.605469 20.902344v20.574219s-26.285156 0-26.289062 0c-17.667969 0-32.914063 14.839844-32.578125 32.644531.328125 17.324219 14.695312 31.414063 32.023437 31.414063h58.875c17.660157 0 32.03125-14.367188 32.03125-32.027344v-38.421875c0-3.070313 2.101563-5.777344 4.890625-6.296875 2.527344-.472656 5.097656.707031 6.367188 2.882812 12.5 21.398438 51.351562 87.5 51.75 88.171875 8.828125 15.003907 28.859375 20.179688 43.851562 11.355469 15.21875-8.960938 20.3125-28.632812 11.355469-43.851562l-49.015625-83.269532c-1.777344-3.019531-1.941406-6.710937-.433594-9.875.191406-.410156 4.613282-16.710937 4.613282-16.710937zm-10.550782-18.558594-7.921875 29.496094c-3.316406 7.515625-2.824219 16.15625 1.359375 23.257812l49.015625 83.269531c4.761719 8.089844 2.054688 18.550782-6.035156 23.3125-7.988281 4.703126-18.605469 1.957032-23.308594-6.03125-.390625-.664062-39.238281-66.75-51.726562-88.132812-3.757813-6.433594-10.71875-10.425781-18.171875-10.425781-11.65625 0-21.046875 9.851562-21.046875 21.40625v38.421875c0 9.390625-7.636719 17.027344-17.027344 17.027344h-58.875c-9.210937 0-16.847656-7.492188-17.023437-16.695313-.179688-9.539063 8.207031-17.359375 17.578124-17.359375h33.792969c4.144531 0 7.5-3.359375 7.5-7.5v-28.074219c0-5.132812 1.167969-10.292969 3.371094-14.925781.140625-.296875 16.195313-49.839844 16.207031-49.882812 1.425782-4.402344-1.585937-9.148438-6.160156-9.746094l-27.304688-3.578125c-2.3125-.300781-4.632812.488281-6.28125 2.136719 0 0-27.277343 27.277343-27.296874 27.296874-6.570313 6.570313-17.515626 6.566407-24.078126 0-6.640624-6.640624-6.640624-17.441406 0-24.078124l35.84375-35.84375c3.691407-3.695313 9.054688-5.527344 14.25-4.84375l37.171876 4.867187c3.152343.414063 6.113281 1.363281 8.800781 2.828125 17.785156 9.667969 37.921875 14.777344 58.242187 14.777344 17.273438 0 33.988282-3.550782 49.675782-10.550782 3.058593-1.363281 6.761718-.574218 8.824218 2.113282l17.296875 22.511718c1.421875 1.847657 3.617188 2.929688 5.949219 2.929688h38.054688c4.726562 0 9.359374 1.957031 12.707031 5.371094 3.222656 3.285156 4.953125 7.542968 4.867187 11.988281-.175781 9.207031-7.8125 16.695313-17.023437 16.695313h-50.691407c-5.253906 0-10.300781-2.484376-13.503906-6.652344 0 0-13.816406-17.984375-13.839844-18.011719-3.71875-4.84375-11.609374-3.257813-13.191406 2.625zm0 0"/><path d="m478.753906 0h-95.128906c-11.273438 0-20.445312 9.171875-20.445312 20.441406v32.515625c0 37.5 30.507812 68.007813 68.011718 68.007813 18.167969 0 35.246094-7.070313 48.089844-19.914063s19.917969-29.925781 19.917969-48.09375v-32.515625c0-11.269531-9.171875-20.441406-20.445313-20.441406zm-10.082031 90.441406c-10.011719 10.007813-23.320313 15.523438-37.484375 15.523438-26.679688 0-48.820312-19.816406-52.472656-45.503906h56.339844c4.140624 0 7.5-3.359376 7.5-7.503907 0-4.03125-3.460938-7.5-7.5-7.5h-56.871094v-25.015625c0-3 2.441406-5.4375 5.441406-5.4375h95.128906c3 0 5.441406 2.4375 5.441406 5.4375v25.015625h-19.222656c-4.039062 0-7.5 3.453125-7.5 7.5 0 4.144531 3.359375 7.5 7.5 7.5h18.699219c-1.59375 11.316407-6.78125 21.765625-15 29.984375zm0 0"/><path d="m402.28125 217.773438c4.109375 0 7.460938-3.308594 7.5-7.425782.042969-4.144531-3.28125-7.535156-7.421875-7.578125-29.527344-.300781-57.285156-11.964843-78.167969-32.84375-20.882812-20.882812-32.546875-48.644531-32.84375-78.175781-.039062-4.144531-3.460937-7.449219-7.574218-7.425781-4.144532.042969-7.46875 3.433593-7.425782 7.578125.335938 33.480468 13.558594 64.957031 37.238282 88.632812 23.671874 23.675782 55.144531 36.898438 88.621093 37.238282zm0 0"/><path d="m402.65625 173.335938c-21.773438-.21875-42.25-8.824219-57.652344-24.222657-15.402344-15.402343-24.003906-35.878906-24.222656-57.660156-.042969-4.140625-3.402344-7.453125-7.578125-7.425781-4.140625.042968-7.464844 3.433594-7.425781 7.578125.257812 25.730469 10.421875 49.921875 28.621094 68.117187 18.191406 18.191406 42.378906 28.355469 68.105468 28.617188h.078125c4.109375 0 7.460938-3.308594 7.5-7.425782.042969-4.144531-3.28125-7.535156-7.425781-7.578124zm0 0"/><path d="m402.957031 143.902344c-14.027343-.140625-27.21875-5.683594-37.136719-15.605469-9.921874-9.921875-15.464843-23.113281-15.605468-37.140625-.042969-4.140625-3.421875-7.453125-7.578125-7.425781-4.140625.042969-7.46875 3.433593-7.425781 7.578125.179687 17.976562 7.285156 34.882812 20 47.597656 12.714843 12.714844 29.617187 19.816406 47.59375 20h.078124c4.105469 0 7.460938-3.308594 7.5-7.425781.039063-4.140625-3.285156-7.535157-7.425781-7.578125zm0 0"/></svg>