<?xml version="1.0" encoding="utf-8"?>
<!-- Generator: Adobe Illustrator 22.1.0, SVG Export Plug-In . SVG Version: 6.00 Build 0)  -->
<svg version="1.1" id="Слой_2" xmlns="http://www.w3.org/2000/svg" xmlns:xlink="http://www.w3.org/1999/xlink" x="0px" y="0px"
	 viewBox="0 0 1451.3 1451.3" style="enable-background:new 0 0 1451.3 1451.3;" xml:space="preserve">
<style type="text/css">
	.st0{fill:none;stroke:#000000;stroke-width:10;stroke-linejoin:round;stroke-miterlimit:10;}
	.st1{fill:none;stroke:#000000;stroke-width:5;stroke-linejoin:round;stroke-miterlimit:10;}
	.st2{fill:none;stroke:#000000;stroke-width:12;stroke-linecap:round;stroke-linejoin:round;stroke-miterlimit:10;}
</style>
<path class="st0" d="M1187.1,531.3L617.5,226.1c-8.6-4.6-17-4-26.3-0.9c-6.4,2.1-13.1,2.7-19.8,2l-0.3,0c-2.2-0.2-4.4-0.5-6.6-0.9
	l-130.7-22.8l0.4,0.1c-34.9,0.7-58.9,9.1-67.9,14.8L37.7,492.2c-6.1,2-10.1,4-16.1,10.8c-9,10.3-13.4,23.9-12.3,37.5l5.8,77.3"/>
<path class="st0" d="M1187.1,531.3c9,5.3,16.2,16.8,17.9,36.7c53.5,39.8,136.4,100.1,197.9,172.7c25.8,30.5,40.1,69.1,40.1,109v92.1
	c0.5,6.7-3.5,11.6-9.1,16.8l0,0l-312.4,303.9c-23.4,27.3-70.9,40.1-105.4,19.1l-967-586.8c-34.6-20.9-32.5-41.5-34-76.9"/>
<path class="st0" d="M37.7,492.2c35.1-5.7,110.6-1.5,187.4,39h0l366-306.1"/>
<polyline class="st0" points="1169.9,522 797.7,857.4 225.2,531.3 "/>
<path class="st0" d="M797.7,857.4v40c0,16.4,8.1,31.7,21.6,40.9c63.5,43.2,147.7,103.6,216.9,180.4c20.3,22.6,31.4,52,31.4,82.3
	v89.8"/>
<line class="st0" x1="810.2" y1="923" x2="1205" y2="567.9"/>
<path class="st1" d="M1427.7,904c0,4.9-2,9.5-5.5,12.8l-308,294.5c-3.4,3.2-9,0.8-9-3.8v-46.7c0-8.2-2.7-16.2-7.6-22.7l-35.2-46.9
	c-2.4-3.2-6.1-5.3-10.1-5.7c-31.3-3-56.2-29.3-59.2-62.5c-0.4-4.6-2.7-8.8-6.2-11.8L843.6,892.9"/>
<polyline class="st1" points="1325.4,1007.5 1325.1,965.5 1325.2,963.9 1213.6,1070 1213.7,1116.2 "/>
<ellipse transform="matrix(0.7354 -0.6776 0.6776 0.7354 -365.646 1008.5433)" class="st1" cx="1108.7" cy="972.5" rx="49.9" ry="63.8"/>
<ellipse transform="matrix(0.7354 -0.6776 0.6776 0.7354 -190.7966 1093.8778)" class="st1" cx="1305.4" cy="791.3" rx="49.9" ry="63.8"/>
<path class="st1" d="M1427.7,904l-1.6-69.4c0-3.6-1.6-6.9-2.1-10.5c-8.3-54-161.3-199.9-241.9-235.5"/>
<ellipse transform="matrix(0.8981 -0.4398 0.4398 0.8981 -183.1978 106.7724)" class="st1" cx="138.8" cy="448.7" rx="50.5" ry="13.1"/>
<ellipse transform="matrix(0.8981 -0.4398 0.4398 0.8981 -92.726 178.862)" class="st1" cx="339.6" cy="289.5" rx="50.5" ry="13.1"/>
<path class="st1" d="M789.1,794L323.7,529.3c-8.9-5.2-16.8-14.9-6.7-25.6l269.3-233.3c5.9-5.5,17.2-9.6,25.6-6.7L1075.8,519
	c8.9,5.2,11.9,16.7,6.7,25.6L814.7,787.3C806.6,794.5,800.8,797.7,789.1,794z"/>
<path class="st2" d="M533,361.9l29.3,17.9c3.2,1.9,7.2,1.6,10.1-0.8l18.1-15.2c3.1-2.6,2.6-7.4-0.9-9.4l-19.7-11
	c-3-1.7-3.4-5.9-0.6-8.1l21.4-16.8c3-2.3,7-2.6,10.3-0.8l30.2,16.8"/>
<polygon class="st2" points="593.2,397.7 624.8,416.5 652.1,392 622,374.4 "/>
<polygon class="st2" points="703.2,458.3 733.9,476.6 761.2,452 731.1,434.5 "/>
<polyline class="st2" points="705.8,422.8 675.7,405.2 648,429.3 "/>
<line class="st2" x1="677.4" y1="449.3" x2="705.8" y2="422.8"/>
<polyline class="st2" points="819.7,483.7 785.8,463.9 753.6,490.7 "/>
<line class="st2" x1="788.2" y1="491.3" x2="768.9" y2="479.1"/>
<polyline class="st2" points="879.5,513.1 845.6,493.3 813.5,520.1 "/>
<line class="st2" x1="848" y1="520.7" x2="828.8" y2="508.5"/>
<ellipse class="st2" cx="637.7" cy="648.7" rx="15.1" ry="10.1"/>
</svg>
