<svg height="512pt" viewBox="-152 0 512 512.001" width="512pt" xmlns="http://www.w3.org/2000/svg"><path d="m119.402344 393.511719v-33.523438h-15.050782v33.523438c-13.042968 3.386719-23.832031 15.859375-23.832031 30.695312 0 17.425781 14.304688 31.605469 31.734375 31.605469 17.425782 0 31.417969-14.179688 31.417969-31.605469 0-14.835937-10.222656-27.308593-24.269531-30.695312zm-7.023438 47.25c-9.128906 0-16.554687-7.429688-16.554687-16.558594s7.425781-16.554687 16.554687-16.554687 16.554688 7.425781 16.554688 16.554687-7.425782 16.558594-16.554688 16.558594zm0 0"/><path d="m151.511719 345.84375v-169.472656h-79.269531v169.472656c-29.097657 14.886719-47.910157 45.117188-47.910157 78.363281 0 48.410157 39.511719 87.792969 87.921875 87.792969s87.605469-39.382812 87.605469-87.792969c0-33.246093-18.246094-63.480469-48.347656-78.363281zm-39.132813 151.105469c-40.113281 0-72.746094-32.632813-72.746094-72.746094 0-28.929687 16.882813-55.109375 43.398438-66.695313l4.261719-1.96875v-164.117187h49.167969v164.117187l4.761718 1.96875c26.515625 11.585938 43.777344 37.765626 43.777344 66.695313 0 40.113281-32.511719 72.746094-72.621094 72.746094zm0 0"/><path d="m104.351562 207.476562h15.050782v40.132813h-15.050782zm0 0"/><path d="m104.351562 263.664062h15.050782v16.054688h-15.050782zm0 0"/><path d="m104.351562 295.773438h15.050782v16.054687h-15.050782zm0 0"/><path d="m104.351562 327.878906h15.050782v16.054688h-15.050782zm0 0"/><path d="m0 192.425781h56.191406v15.050781h-56.191406zm0 0"/><path d="m24.082031 224.53125h32.109375v15.050781h-32.109375zm0 0"/><path d="m0 256.640625h56.191406v15.050781h-56.191406zm0 0"/><path d="m0 320.855469h56.191406v15.050781h-56.191406zm0 0"/><path d="m24.082031 288.75h32.109375v15.050781h-32.109375zm0 0"/><path d="m104.351562 125.976562v25.308594h15.050782v-25.308594c19.0625-3.527343 32.359375-19.625 32.359375-38.90625 0-18.832031-27.488281-66.664062-33.023438-76.0625l-6.421875-11.007812-6.453125 11.007812c-5.539062 9.398438-33.386719 57.230469-33.386719 76.0625 0 19.28125 13.8125 35.378907 31.875 38.90625zm15.050782-82.042968c4.011718 6.222656 5.910156 11.839844 8.148437 16.820312l-8.148437 8.148438zm0 46.253906 14.535156-14.285156c1.90625 5.464844 2.648438 9.230468 2.648438 11.167968 0 10.929688-7.148438 20.214844-17.183594 23.398438zm-15.050782-46.25v24.964844l-8.148437-8.148438c2.238281-4.980468 5.136719-10.59375 8.148437-16.816406zm-14.160156 31.964844 14.160156 14.285156v20.28125c-9.03125-3.1875-16.804687-12.46875-16.804687-23.398438 0-1.933593.738281-5.699218 2.644531-11.167968zm0 0"/><path d="m191.316406 99.6875-6.695312-13.039062-6.695313 13.039062c-3.960937 7.714844-16.882812 33.65625-16.882812 43.574219 0 13 10.578125 23.578125 23.578125 23.578125 13.003906 0 23.578125-10.578125 23.578125-23.578125 0-9.917969-12.921875-35.859375-16.882813-43.574219zm-6.695312 52.101562c-4.699219 0-8.527344-3.828124-8.527344-8.527343.015625-2.941407 3.78125-12.53125 8.527344-22.894531 4.75 10.359374 8.515625 19.949218 8.53125 22.894531 0 4.699219-3.828125 8.527343-8.53125 8.527343zm0 0"/><path d="m40.136719 166.839844c13 0 23.578125-10.578125 23.578125-23.582032 0-9.914062-12.921875-35.855468-16.882813-43.570312l-6.695312-13.039062-6.695313 13.039062c-3.960937 7.714844-16.886718 33.65625-16.886718 43.570312 0 13.003907 10.578124 23.582032 23.582031 23.582032zm0-46.472656c4.746093 10.359374 8.511719 19.949218 8.527343 22.890624 0 4.703126-3.824218 8.53125-8.527343 8.53125s-8.53125-3.828124-8.53125-8.527343c.015625-2.941407 3.78125-12.53125 8.53125-22.894531zm0 0"/></svg>